<?xml version="1.0" standalone="no"?>
<!DOCTYPE svg PUBLIC "-//W3C//DTD SVG 20010904//EN"
 "http://www.w3.org/TR/2001/REC-SVG-20010904/DTD/svg10.dtd">
<svg version="1.0" xmlns="http://www.w3.org/2000/svg"
 width="400.000000pt" height="400.000000pt" viewBox="0 0 400.000000 400.000000"
 preserveAspectRatio="xMidYMid meet">
<metadata>
Created by potrace 1.15, written by Peter Selinger 2001-2017
</metadata>
<g transform="translate(0.000000,400.000000) scale(0.100000,-0.100000)"
fill="#000000" stroke="none">
<path d="M2300 3959 c-25 -4 -106 -8 -180 -8 -202 -2 -379 -27 -513 -75 -72
-25 -73 -24 -18 37 26 28 20 38 -8 13 -9 -7 -42 -23 -73 -34 -138 -51 -339
-169 -437 -258 -59 -53 -87 -99 -136 -226 -33 -85 -43 -101 -82 -128 -85 -62
-159 -178 -199 -317 -12 -41 -14 -73 -9 -122 l7 -66 22 60 c19 53 76 160 76
144 0 -4 -12 -33 -27 -65 -31 -67 -31 -81 -15 -349 6 -101 17 -190 27 -220 9
-27 22 -93 30 -145 8 -53 25 -130 38 -171 l24 -76 -29 11 c-24 9 -35 7 -65 -9
-83 -46 -91 -133 -30 -315 19 -59 34 -123 34 -146 -1 -30 6 -52 26 -81 15 -22
32 -65 38 -97 6 -32 15 -70 20 -85 15 -38 78 -99 110 -106 32 -7 32 -7 54
-225 13 -134 20 -163 46 -218 41 -83 123 -170 299 -312 78 -63 168 -139 199
-169 64 -61 175 -138 241 -166 39 -18 68 -20 240 -20 192 0 196 0 254 28 74
34 176 107 213 151 15 19 51 51 78 71 73 55 262 215 320 271 28 27 69 81 92
119 46 76 40 46 79 423 4 42 9 52 20 48 19 -7 62 15 90 46 34 37 53 82 60 143
5 39 15 66 32 87 17 20 27 46 30 81 2 29 20 99 38 156 59 184 56 244 -17 306
-32 26 -58 29 -101 10 -16 -6 -18 -1 -18 34 0 22 7 58 14 78 23 60 65 243 78
340 14 110 15 389 1 508 -16 140 -56 238 -138 338 -41 51 -45 59 -34 79 14 26
14 134 0 188 l-9 35 -2 -45 c-2 -69 -18 -97 -20 -35 -1 87 -24 167 -65 228
-21 31 -39 57 -40 57 -1 0 6 -24 16 -52 10 -29 18 -75 18 -103 l-1 -50 -29 84
c-16 47 -39 100 -51 118 -23 34 -111 88 -127 78 -5 -2 -14 2 -20 9 -28 34
-331 124 -372 111 -15 -5 -19 -4 -15 4 8 13 -15 13 -84 0z m-575 -185 c-48
-25 -106 -67 -101 -72 3 -2 27 10 54 27 80 51 70 35 -13 -21 -72 -48 -130
-107 -185 -186 -12 -19 15 4 61 50 81 81 177 144 249 162 14 4 -2 -6 -35 -22
-166 -80 -292 -221 -330 -371 -14 -54 -15 -75 -5 -129 13 -77 6 -95 -9 -22
-36 169 6 308 135 438 39 39 69 72 65 72 -16 0 -143 -140 -174 -193 -59 -98
-83 -252 -52 -342 l7 -20 -13 20 c-7 11 -15 57 -17 101 -4 65 0 95 17 147 28
83 83 167 152 233 63 60 188 144 214 143 6 0 -3 -7 -20 -15z m871 -91 c-10
-57 -46 -162 -69 -202 -38 -65 -79 -110 -191 -209 -153 -135 -169 -144 -45
-25 58 56 127 130 154 165 l50 63 -43 -35 c-24 -19 -69 -55 -100 -79 -32 -24
-82 -64 -112 -90 l-55 -46 50 56 c28 31 77 78 110 104 142 113 214 200 236
288 14 56 24 63 15 10z m-324 -20 c-17 -21 -72 -78 -122 -128 -132 -129 -200
-223 -231 -315 -7 -18 -7 -14 -3 15 8 59 51 131 123 207 35 37 59 68 53 68
-14 0 -96 -92 -153 -173 -63 -91 -83 -151 -76 -236 l5 -66 -15 40 c-8 22 -15
72 -16 110 -2 64 2 79 35 145 24 48 61 100 103 145 37 39 52 52 33 30 -72 -86
-184 -282 -148 -260 5 3 10 12 10 19 0 17 73 121 118 170 21 21 78 71 127 111
50 39 110 91 135 113 25 23 47 41 48 42 2 0 -10 -17 -26 -37z m-981 -11 c-5
-10 -17 -25 -26 -32 -24 -20 -63 -102 -80 -168 -17 -64 -9 -136 20 -192 9 -16
13 -30 11 -30 -7 0 -37 58 -47 90 -6 21 -7 19 -8 -15 -1 -23 8 -59 19 -80 l19
-40 -30 35 c-16 19 -35 53 -41 75 -16 56 -13 153 6 200 9 22 14 29 11 15 -4
-14 -8 -54 -10 -90 -4 -62 -4 -62 4 -15 10 64 47 136 106 208 47 58 64 72 46
39z m754 -15 c-147 -108 -264 -282 -273 -408 -4 -61 0 -83 34 -189 3 -8 -4 1
-15 20 -26 48 -51 147 -51 205 0 53 39 160 81 220 35 50 88 112 89 103 0 -4
-13 -22 -29 -41 -35 -39 -111 -175 -110 -197 0 -8 9 3 21 25 34 66 128 174
201 231 38 30 72 54 76 54 3 0 -7 -11 -24 -23z m410 -26 c-15 -22 -63 -79
-107 -128 -81 -88 -152 -171 -178 -208 -8 -11 12 8 44 43 32 34 99 97 149 139
51 43 97 84 104 93 7 8 13 12 13 7 0 -4 -69 -76 -153 -160 -163 -161 -210
-221 -240 -302 l-18 -50 6 45 c7 55 53 155 102 224 25 34 29 44 14 31 -36 -31
-135 -155 -160 -200 -12 -22 -19 -31 -16 -20 19 64 84 144 246 305 97 96 184
188 194 203 10 15 20 25 23 22 3 -2 -7 -23 -23 -44z m323 -75 c-3 -50 -8 -100
-12 -111 -6 -17 -6 -18 3 -3 6 9 18 43 26 75 l15 58 -5 -50 c-6 -64 -60 -174
-120 -245 l-47 -55 45 47 c58 62 117 150 133 202 10 33 13 36 13 15 2 -49 -55
-141 -135 -219 -42 -41 -73 -68 -70 -60 4 8 -1 5 -11 -6 -28 -33 -153 -124
-153 -112 0 2 27 23 60 47 63 46 150 152 194 235 39 74 56 141 57 230 1 45 4
72 6 62 3 -11 3 -61 1 -110z m-1328 -606 c3 0 -2 5 -10 10 -11 8 -7 9 15 4 88
-20 293 -77 385 -108 72 -25 123 -36 163 -36 61 0 155 27 209 60 36 22 76 29
48 9 -12 -9 -11 -10 5 -4 37 13 220 62 258 69 23 4 37 3 33 -2 -3 -5 18 -3 47
5 102 28 253 10 289 -34 11 -15 11 -16 -7 -9 -11 4 -33 9 -50 12 l-30 4 31
-10 c26 -8 155 -110 140 -110 -3 0 -22 10 -43 21 l-38 22 26 -24 c33 -30 65
-84 73 -124 4 -16 8 -102 9 -190 l3 -160 34 -70 35 -70 1 -220 c0 -121 4 -272
9 -335 7 -110 6 -119 -20 -195 -15 -44 -37 -98 -48 -120 -18 -36 -18 -38 -2
-25 17 14 18 13 11 -10 -4 -14 -10 -45 -12 -70 -3 -25 -8 -52 -11 -60 -4 -8
-5 -36 -4 -62 2 -30 -1 -48 -8 -48 -6 0 -11 8 -12 18 -1 9 -7 -15 -14 -54 -7
-39 -25 -94 -39 -123 -31 -59 -43 -68 -19 -13 29 67 46 122 39 122 -2 0 -20
-25 -41 -55 -20 -30 -39 -55 -42 -55 -5 0 14 36 39 75 18 28 17 27 -15 -6 -34
-36 -77 -130 -77 -172 -1 -12 -8 -33 -16 -47 -11 -18 -13 -19 -9 -5 4 11 10
40 15 65 5 25 14 58 20 74 6 16 8 31 6 34 -3 3 -8 -1 -11 -9 -3 -8 -14 -39
-25 -69 -11 -30 -18 -44 -16 -30 l5 25 -20 -24 c-10 -13 -19 -33 -19 -45 0
-11 -9 -39 -20 -61 -11 -22 -18 -31 -14 -20 20 63 22 75 15 75 -4 0 -16 -18
-26 -40 -10 -22 -20 -38 -22 -36 -3 2 0 15 6 28 11 22 11 22 -6 -2 -36 -49
-66 -81 -71 -75 -3 3 5 17 19 32 l24 26 -40 -23 c-55 -32 -77 -54 -80 -82 -2
-12 -6 -31 -10 -40 -9 -22 8 -24 25 -3 7 9 15 13 18 10 3 -3 -11 -22 -30 -43
-20 -20 -39 -50 -43 -67 l-6 -30 16 27 c17 30 55 57 51 35 -7 -31 -22 -49 -68
-82 -59 -43 -58 -55 2 -26 41 19 42 20 25 1 -23 -26 -132 -60 -197 -62 l-53
-1 65 -6 65 -6 -48 -8 c-58 -10 -102 3 -171 50 l-51 35 48 -46 c27 -25 44 -46
37 -46 -6 0 -37 25 -69 55 -55 52 -91 75 -59 38 24 -30 51 -76 39 -69 -17 11
-13 -5 7 -28 16 -20 16 -20 -2 -6 -10 8 -27 33 -36 55 -9 22 -25 47 -35 55
-17 14 -17 14 -1 -20 9 -19 22 -44 28 -55 10 -17 9 -18 -4 -7 -9 7 -21 26 -28
42 -7 17 -15 30 -19 30 -10 0 -11 -108 -1 -135 7 -17 7 -24 0 -20 -6 3 -10 13
-10 21 0 9 -5 12 -12 8 -8 -5 -9 0 -6 14 4 12 3 24 -2 27 -4 3 -4 23 1 46 5
23 6 47 1 56 -8 13 -12 11 -29 -13 -11 -16 -25 -43 -32 -61 -7 -18 -20 -38
-29 -45 -12 -10 -11 -7 2 14 13 19 14 28 6 28 -7 0 -1 15 14 34 40 52 31 54
-22 4 -27 -25 -59 -51 -73 -57 -14 -7 -6 4 21 28 49 44 46 56 -5 17 -56 -43
-104 -58 -160 -49 l-50 8 65 6 65 6 -53 1 c-72 3 -164 30 -199 59 -21 18 -22
21 -6 14 74 -36 78 -31 18 25 -33 30 -54 53 -47 49 17 -9 15 5 -5 29 -18 20
-18 20 9 0 15 -10 28 -22 28 -25 0 -3 7 -14 16 -25 14 -18 15 -18 8 6 -3 14
-25 44 -47 67 -44 46 -46 66 -4 32 34 -26 34 -14 2 33 -27 39 -35 65 -10 32 8
-10 15 -15 15 -11 0 21 -24 47 -65 71 l-46 25 22 -30 c20 -28 20 -30 2 -19
-10 7 -32 31 -47 54 -15 22 -25 33 -22 24 9 -28 -2 -21 -19 13 -23 43 -29 30
-11 -22 8 -24 14 -45 12 -47 -5 -4 -36 76 -36 94 0 27 -31 78 -40 65 -4 -8
-12 5 -20 33 -7 25 -18 50 -26 56 -8 7 -6 -6 7 -39 10 -28 19 -64 18 -79 0
-18 -6 -7 -18 34 -18 64 -59 141 -85 164 -24 19 -19 7 19 -50 19 -29 35 -57
35 -63 0 -5 -21 22 -47 61 -27 38 -49 69 -50 68 -5 -5 27 -109 38 -122 6 -8 9
-17 6 -20 -8 -8 -55 97 -62 141 -3 22 -9 51 -12 65 -6 25 -6 25 -13 -5 -6 -25
-8 -20 -9 25 -1 50 -7 96 -26 200 -5 26 -4 31 4 20 17 -24 13 6 -5 42 -9 18
-27 63 -40 102 -27 79 -32 211 -12 311 9 45 9 92 -1 204 -14 169 -8 213 40
317 33 69 33 70 35 241 l1 171 32 56 c18 31 42 63 54 71 12 8 18 15 13 15 -4
0 -22 -10 -39 -21 -26 -18 -23 -13 14 25 25 26 63 53 85 61 44 16 26 20 -24 6
-41 -12 -33 1 15 24 55 26 129 33 208 18 39 -7 72 -13 75 -13z m-618 -996 c4
-3 8 -13 8 -22 0 -9 9 -45 19 -79 l19 -63 -44 45 c-40 42 -76 57 -88 36 -3 -5
8 -11 25 -15 31 -6 31 -6 11 -23 -11 -10 -23 -33 -26 -52 -7 -37 0 -36 18 1
25 51 62 29 98 -57 27 -64 23 -124 -12 -176 -16 -24 -30 -50 -30 -57 0 -7 23
-35 50 -63 28 -27 50 -57 50 -66 0 -9 3 -14 6 -10 10 10 -6 46 -42 93 -33 43
-34 47 -23 84 15 48 29 52 29 8 0 -18 12 -60 26 -93 20 -48 27 -83 31 -172 3
-62 2 -113 -2 -113 -15 0 -86 63 -99 89 -8 15 -17 45 -21 66 -6 33 -5 38 6 28
7 -7 17 -13 21 -13 18 0 5 24 -43 83 -47 58 -50 65 -45 107 10 91 15 164 10
145 -3 -11 -10 -33 -16 -49 -11 -27 -12 -24 -39 63 -39 126 -45 180 -25 219
30 58 85 82 128 56z m2440 -4 c14 -11 33 -36 43 -56 15 -32 16 -44 6 -95 -7
-32 -21 -84 -31 -115 -11 -32 -20 -69 -20 -83 -1 -25 -1 -25 -12 -6 -7 11 -15
36 -19 55 l-7 35 -1 -37 c0 -20 4 -60 10 -88 14 -67 7 -90 -46 -150 -25 -28
-45 -57 -45 -65 0 -18 12 -19 29 -2 11 10 12 6 6 -23 -4 -19 -11 -44 -15 -56
-13 -32 -69 -84 -92 -84 -20 0 -21 4 -14 73 13 140 15 152 36 211 11 33 20 73
20 90 0 30 1 30 21 -14 l20 -44 -21 -26 c-29 -36 -62 -101 -56 -108 3 -3 6 1
6 8 0 8 20 32 44 54 57 54 63 76 33 112 -13 16 -30 46 -38 67 -12 33 -11 44 5
90 26 74 54 117 77 117 13 0 25 -12 34 -32 l14 -33 1 33 c0 19 -8 40 -19 51
-21 21 -18 31 11 31 10 0 18 5 18 10 0 15 -33 12 -58 -6 -13 -9 -37 -34 -53
-57 -32 -44 -36 -43 -16 6 8 18 20 56 27 85 9 38 19 56 34 62 32 13 41 12 68
-10z"/>
<path d="M1660 2166 c0 -3 17 -22 38 -41 l37 -36 -49 31 c-28 16 -61 30 -74
30 l-24 0 22 -18 c21 -17 14 -17 -91 4 -161 33 -221 31 -296 -6 -34 -17 -68
-41 -77 -55 l-15 -24 61 21 c56 19 67 20 127 8 36 -7 73 -15 81 -17 10 -3 8 1
-4 11 -26 21 -21 20 52 -8 78 -31 188 -56 244 -56 24 0 50 -6 58 -12 7 -7 5 1
-5 17 l-18 30 28 -25 28 -25 -7 30 -7 29 22 -19 22 -20 -7 25 c-13 42 -39 72
-94 102 -29 17 -52 27 -52 24z"/>
<path d="M2310 2146 c-55 -29 -83 -60 -99 -105 l-11 -35 25 24 24 23 -9 -34
-9 -34 20 28 c11 15 25 27 31 27 6 0 4 -8 -5 -18 -19 -21 -23 -42 -5 -24 7 7
35 12 63 12 55 0 161 26 243 59 66 26 78 26 32 0 -26 -14 -28 -18 -10 -13 149
41 159 42 232 14 29 -11 55 -20 57 -20 3 0 -8 14 -25 31 -44 47 -118 79 -186
79 -51 0 -243 -31 -286 -47 -11 -4 -8 2 8 16 l25 22 -33 -5 c-18 -3 -50 -18
-70 -33 -35 -26 -36 -26 -17 -3 11 13 29 32 40 42 27 23 19 22 -35 -6z"/>
<path d="M1322 1976 c-17 -6 -39 -19 -49 -30 -17 -18 -17 -18 4 -7 12 6 41 11
65 10 36 -1 39 -2 18 -9 -14 -4 -52 -20 -85 -35 l-60 -27 31 -28 c41 -36 139
-56 204 -41 28 6 48 6 56 0 17 -14 57 4 82 38 18 23 23 26 32 13 15 -22 12
-31 -10 -37 -38 -10 -20 -23 34 -23 69 0 91 20 49 47 -15 10 -48 33 -73 52
l-45 34 35 -8 c19 -4 62 -21 95 -37 l60 -29 -40 36 c-65 58 -89 67 -214 76
-64 5 -125 10 -136 12 -12 2 -35 -1 -53 -7z"/>
<path d="M2480 1970 c-97 -8 -142 -26 -191 -76 l-34 -36 60 30 c33 17 76 33
95 37 32 6 29 2 -38 -45 -40 -29 -71 -57 -69 -64 4 -13 127 -21 127 -8 0 5 -9
12 -21 15 -13 4 -19 12 -17 23 5 29 26 27 42 -4 10 -20 25 -31 47 -36 36 -7
55 2 22 10 -12 3 -24 12 -27 19 -3 9 7 7 29 -6 19 -12 39 -18 44 -14 6 3 20 1
33 -6 32 -17 152 7 190 40 l30 24 -29 16 c-15 8 -53 25 -83 38 l-55 23 43 0
c24 0 52 -5 63 -10 32 -18 21 -1 -13 20 -36 21 -84 23 -248 10z"/>
<path d="M1880 1104 c0 -4 10 -19 23 -33 l22 -25 -29 22 c-27 21 -30 21 -42 5
-13 -17 -14 -17 -8 2 4 15 -1 12 -20 -10 -14 -16 -26 -26 -26 -21 0 5 -10 1
-22 -10 l-22 -19 17 27 c28 44 19 46 -18 3 -22 -25 -33 -33 -29 -20 5 17 2 16
-18 -6 -12 -14 -36 -41 -51 -60 l-29 -34 26 37 c14 20 26 39 26 42 0 3 -22 -7
-50 -22 -27 -15 -50 -31 -50 -36 0 -4 8 -2 18 5 15 13 16 12 3 -3 -7 -10 -17
-15 -22 -12 -5 3 -9 0 -9 -5 0 -6 -4 -11 -10 -11 -5 0 -7 8 -3 18 4 10 -9 3
-33 -18 -21 -19 -31 -26 -21 -14 23 28 22 37 -4 24 -22 -12 -42 -54 -52 -108
-5 -24 -3 -31 5 -26 7 5 9 2 5 -9 -3 -8 -9 -33 -12 -54 l-7 -38 17 30 c23 42
25 42 18 1 -7 -43 11 -50 22 -8 4 15 10 21 12 14 3 -7 19 10 36 39 18 29 38
55 46 57 8 3 11 0 7 -7 -13 -20 7 -12 38 17 29 25 29 25 8 1 -12 -14 -22 -28
-22 -31 0 -16 74 2 98 23 l27 24 -20 -24 -20 -24 24 13 c13 7 35 24 49 39 13
14 18 17 11 6 -13 -19 -13 -19 7 -5 12 8 37 26 55 39 31 23 32 23 15 3 -23
-26 -16 -28 27 -5 30 15 31 15 18 0 -11 -15 -11 -17 1 -17 8 0 20 6 27 13 8 7
11 7 8 1 -5 -8 8 -11 42 -11 31 1 47 5 44 12 -3 5 0 4 8 -2 16 -16 33 -17 23
-2 -4 7 1 7 16 -1 25 -13 42 -4 20 10 -8 6 -10 10 -4 10 5 0 19 -7 30 -15 10
-8 25 -15 33 -15 11 0 11 3 0 17 -8 10 5 3 29 -16 44 -34 55 -33 25 3 -10 12
4 -1 30 -27 50 -51 79 -58 36 -9 -16 18 -11 16 13 -7 23 -21 49 -35 68 -36 35
-2 35 -2 13 33 l-17 27 30 -27 c32 -29 50 -37 38 -15 -4 6 3 3 15 -8 13 -11
30 -32 37 -48 8 -15 19 -25 24 -22 6 4 7 -1 3 -11 -4 -11 -2 -15 4 -11 6 4 14
-3 18 -16 7 -20 8 -18 12 12 l5 34 19 -29 c23 -35 24 -24 5 40 -12 38 -12 45
-1 36 10 -8 10 2 -2 50 -13 51 -21 63 -47 77 l-31 16 25 -29 c14 -16 6 -11
-19 11 -36 33 -42 36 -36 18 8 -29 -6 -29 -31 -1 -19 22 -19 23 1 8 19 -14 19
-14 6 3 -8 9 -16 15 -19 12 -3 -3 -14 3 -25 12 -15 13 -19 14 -13 3 4 -8 1 -7
-7 3 -9 10 -22 20 -31 21 -8 1 -25 11 -37 22 -14 12 -19 13 -14 4 4 -8 -9 1
-30 20 l-38 35 19 -30 18 -30 -23 20 -24 20 12 -22 c18 -36 5 -27 -19 12 -20
32 -51 52 -34 23 5 -10 4 -10 -6 -1 -11 10 -18 9 -33 -5 -20 -17 -20 -17 -2
11 l18 29 -48 -31 c-27 -17 -58 -31 -69 -31 -21 -1 -21 -1 -2 -15 18 -14 17
-15 -20 -14 -21 1 -31 3 -21 6 25 7 21 20 -10 28 -16 3 -43 18 -60 31 -18 14
-33 22 -33 18z"/>
<path d="M1762 815 c-73 -36 -99 -45 -123 -40 -16 4 -27 11 -23 16 8 14 -32
11 -44 -4 -25 -30 27 -50 123 -49 66 1 536 1 630 0 90 -1 127 10 123 36 -2 13
-12 22 -27 24 -14 2 -21 0 -17 -7 4 -6 -7 -13 -27 -16 -27 -5 -49 2 -122 40
-89 47 -91 47 -155 40 -80 -10 -119 -10 -190 0 -52 6 -60 4 -148 -40z"/>
<path d="M1714 684 c10 -16 34 -41 53 -54 33 -23 41 -23 231 -25 221 -1 251 6
301 75 l26 35 -25 -17 c-101 -71 -94 -69 -283 -70 -95 0 -185 3 -198 7 -13 4
-46 24 -73 44 l-50 35 18 -30z"/>
<path d="M1777 585 c6 -18 5 -18 -10 -6 -9 7 -17 10 -17 6 0 -14 52 -77 58
-71 3 3 -3 15 -13 26 -10 11 -16 23 -13 25 3 3 20 -17 38 -45 19 -29 38 -49
45 -46 7 2 23 -3 36 -11 24 -16 24 -16 -1 12 l-25 28 48 -32 c26 -18 47 -28
47 -22 0 5 -4 12 -9 15 -5 3 -11 15 -14 27 l-6 21 24 -22 23 -22 7 23 7 22 13
-22 c11 -21 13 -22 19 -6 3 10 9 15 13 12 3 -4 13 -1 21 5 8 7 5 -3 -7 -25
l-21 -38 22 12 c13 6 31 18 41 27 11 10 17 11 17 4 0 -7 -4 -12 -10 -12 -5 0
-10 -5 -10 -12 0 -6 14 1 32 18 25 23 30 25 24 9 -5 -15 0 -13 20 9 15 17 23
35 19 44 -3 9 -3 13 1 9 4 -4 13 -2 21 4 19 16 16 -1 -4 -23 -9 -10 -11 -18
-5 -18 6 0 19 12 30 28 33 48 37 58 14 38 -23 -20 -30 -10 -9 14 6 8 2 6 -11
-5 -24 -20 -52 -28 -52 -15 0 7 -58 11 -170 12 -19 0 -72 -1 -117 -3 -78 -3
-81 -4 -72 -24 6 -11 -4 -4 -20 15 -20 22 -29 28 -24 15z"/>
</g>
</svg>
